<svg width="508" height="508" viewBox="0 0 508 508" fill="none" xmlns="http://www.w3.org/2000/svg">
<g filter="url(#filter0_d_260_3071)">
<rect x="4" width="500" height="500" rx="112" fill="#FDF2DA"/>
<path fill-rule="evenodd" clip-rule="evenodd" d="M299.572 199.452C303.976 205.071 310.426 209 317.566 209H359.398C372.577 209 382.146 196.409 376.602 184.452C351.837 131.043 297.744 94 235 94C148.844 94 79 163.844 79 250C79 336.156 148.844 406 235 406C298.176 406 352.582 368.446 377.109 314.443C382.537 302.494 372.97 290 359.846 290H318.323C311.083 290 304.561 294.037 300.161 299.787C285.176 319.37 261.563 332 235 332C189.713 332 153 295.287 153 250C153 204.713 189.713 168 235 168C261.217 168 284.561 180.304 299.572 199.452Z" fill="#FDA416"/>
<path fill-rule="evenodd" clip-rule="evenodd" d="M447 214C470.196 214 489 195.196 489 172C489 148.804 470.196 130 447 130C423.804 130 405 148.804 405 172C405 181.742 403.262 192.181 396.023 198.699L385.639 208.049C381.446 211.824 375.642 213 370 213C362.613 213 355.732 215.164 349.957 218.894C349.518 219.177 349.078 219.462 348.636 219.748L348.626 219.755C340.168 225.234 331.267 231 321.253 231H298.367C286.204 231 275.786 222.968 267.132 214.421C258.102 205.504 245.694 199.999 232 199.999C204.386 199.999 182 222.384 182 249.999C182 277.613 204.386 299.999 232 299.999C245.693 299.999 258.101 294.494 267.131 285.577C275.785 277.031 286.203 269 298.365 269H321.253C331.267 269 340.168 274.766 348.626 280.245L349.373 280.729C349.568 280.855 349.762 280.981 349.957 281.106C355.732 284.836 362.613 287 370 287C390.435 287 407 270.435 407 250C407 244.63 408.471 239.131 412.462 235.538L430.492 219.303C434.925 215.312 441.035 214 447 214ZM232.5 274C246.031 274 257 263.031 257 249.5C257 235.969 246.031 225 232.5 225C218.969 225 208 235.969 208 249.5C208 263.031 218.969 274 232.5 274ZM385 250C385 257.732 378.732 264 371 264C363.268 264 357 257.732 357 250C357 242.268 363.268 236 371 236C378.732 236 385 242.268 385 250ZM448.5 189C458.165 189 466 181.165 466 171.5C466 161.835 458.165 154 448.5 154C438.835 154 431 161.835 431 171.5C431 181.165 438.835 189 448.5 189Z" fill="#FDA416"/>
</g>
<defs>
<filter id="filter0_d_260_3071" x="0" y="0" width="508" height="508" filterUnits="userSpaceOnUse" color-interpolation-filters="sRGB">
<feFlood flood-opacity="0" result="BackgroundImageFix"/>
<feColorMatrix in="SourceAlpha" type="matrix" values="0 0 0 0 0 0 0 0 0 0 0 0 0 0 0 0 0 0 127 0" result="hardAlpha"/>
<feOffset dy="4"/>
<feGaussianBlur stdDeviation="2"/>
<feComposite in2="hardAlpha" operator="out"/>
<feColorMatrix type="matrix" values="0 0 0 0 0 0 0 0 0 0 0 0 0 0 0 0 0 0 0.25 0"/>
<feBlend mode="normal" in2="BackgroundImageFix" result="effect1_dropShadow_260_3071"/>
<feBlend mode="normal" in="SourceGraphic" in2="effect1_dropShadow_260_3071" result="shape"/>
</filter>
</defs>
</svg>
